<svg width="1578" height="432" viewBox="0 0 1578 432" fill="none" xmlns="http://www.w3.org/2000/svg">
<g filter="url(#filter0_d_7_24)">
<path d="M120.876 138.411V204.151L74.6298 264.942H74.4937V138.411H120.876Z" fill="url(#paint0_linear_7_24)"/>
</g>
<g filter="url(#filter1_d_7_24)">
<path d="M183.893 100.107V195.374L151.942 163.339L137.533 182.282V100.107H183.893Z" fill="url(#paint1_linear_7_24)"/>
</g>
<g filter="url(#filter2_d_7_24)">
<path d="M246.93 69.0629V251.192L243.163 254.756L200.548 212.073V69.0629H246.93Z" fill="url(#paint2_linear_7_24)"/>
</g>
<g filter="url(#filter3_d_7_24)">
<path d="M309.946 31V191.744L292.518 208.178L270.984 228.508L263.586 235.483V31H309.946Z" fill="url(#paint3_linear_7_24)"/>
</g>
<g filter="url(#filter4_d_7_24)">
<path d="M386.692 138.411L371.374 190.972L361.595 181.226L309.947 229.959L272.868 264.942L242.552 293.543L214.005 264.942L200.548 251.455L183.893 234.755L178.9 229.762L151.556 202.347L141.05 212.49L137.532 215.878L120.877 231.984L104.175 248.11L86.9745 264.722L86.7473 264.942L62.1265 288.703L41 309.12L74.6299 264.942L120.877 204.151L137.532 182.282L151.942 163.338L183.893 195.373L197.553 209.08L200.548 212.072L243.165 254.755L246.931 251.191L263.588 235.482L270.985 228.507L292.52 208.178L309.947 191.743L341.898 161.6L332.095 151.853L386.692 138.411Z" fill="url(#paint4_linear_7_24)"/>
</g>
<g filter="url(#filter5_d_7_24)">
<path d="M376.254 228.508C376.254 323.621 296.468 401.001 198.347 401.001C148.288 401.001 101.724 380.606 68.7978 346.723C62.3078 340.057 56.3624 332.884 51.0071 325.228L71.4527 305.492L104.334 273.788L113.479 264.944L120.876 257.815L137.532 241.71L141.208 238.168L149.899 229.763L151.306 228.377L151.329 228.399L152.1 227.651L183.892 259.51L197.711 273.371L243.3 319.067L271.12 292.798L292.678 272.49L300.665 264.944L309.946 256.187L342.032 225.891L242.709 357.857L179.035 294.074L151.691 266.659L141.208 276.781L104.333 312.401L88.8344 327.384C116.542 356.229 155.958 373.609 198.347 373.609C280.878 373.609 348.002 308.53 348.002 228.51L376.254 228.508Z" fill="url(#paint5_linear_7_24)"/>
</g>
<g filter="url(#filter6_d_7_24)">
<path d="M620.488 312.44L600.328 332.6L566.488 299H501.448L473.848 271.4V158.6L501.448 131H587.848L615.448 158.6V271.4L597.688 289.16L620.488 312.44ZM570.568 271.16L582.808 258.92V171.08L570.568 158.84H518.728L506.488 171.08V258.92L518.728 271.16H570.568ZM640.695 274.04V204.44L665.415 179.48H734.055L758.775 204.44V274.04L734.055 299H665.415L640.695 274.04ZM718.695 272.6L727.095 264.2V214.28L718.695 205.88H680.775L672.375 214.28V264.2L680.775 272.6H718.695ZM785.127 179.48H814.407V197L831.927 179.48H878.487L903.207 204.44V274.04L878.487 299H832.167L816.807 286.28V349.88H785.127V179.48ZM863.127 272.12L871.527 263.72V214.76L863.127 206.36H836.007L816.807 225.8V255.08L835.767 272.12H863.127ZM919.93 274.52L986.41 205.64V205.16H922.33V179.48H1027.45V203.96L960.97 272.84V273.32H1027.45V299H919.93V274.52ZM1058.66 274.52V206.12H1037.06V179.48H1059.14V140.6H1090.34V179.48H1126.82V206.36H1090.34V264.2L1098.5 272.12H1126.82V299H1083.38L1058.66 274.52ZM1141.32 274.04V204.44L1166.04 179.48H1234.68L1259.4 204.44V274.04L1234.68 299H1166.04L1141.32 274.04ZM1219.32 272.6L1227.72 264.2V214.28L1219.32 205.88H1181.4L1173 214.28V264.2L1181.4 272.6H1219.32ZM1283.35 274.52V203.96L1307.59 179.48H1373.35L1398.07 204.44V226.52H1366.39V214.76L1357.99 206.36H1323.43L1315.03 214.76V263.72L1323.43 272.12H1357.99L1366.39 263.72V251.96H1398.07V274.04L1373.35 299H1307.59L1283.35 274.52ZM1419.58 127.64H1451.26V223.4H1472.14L1502.62 179.48H1537.66L1497.82 237.08L1540.06 299H1505.02L1471.42 250.28H1451.26V299H1419.58V127.64Z" fill="url(#paint6_linear_7_24)"/>
</g>
<defs>
<filter id="filter0_d_7_24" x="66.4937" y="130.411" width="70.3828" height="150.532" filterUnits="userSpaceOnUse" color-interpolation-filters="sRGB">
<feFlood flood-opacity="0" result="BackgroundImageFix"/>
<feColorMatrix in="SourceAlpha" type="matrix" values="0 0 0 0 0 0 0 0 0 0 0 0 0 0 0 0 0 0 127 0" result="hardAlpha"/>
<feOffset dx="4" dy="4"/>
<feGaussianBlur stdDeviation="6"/>
<feComposite in2="hardAlpha" operator="out"/>
<feColorMatrix type="matrix" values="0 0 0 0 0 0 0 0 0 0 0 0 0 0 0 0 0 0 0.5 0"/>
<feBlend mode="normal" in2="BackgroundImageFix" result="effect1_dropShadow_7_24"/>
<feBlend mode="normal" in="SourceGraphic" in2="effect1_dropShadow_7_24" result="shape"/>
</filter>
<filter id="filter1_d_7_24" x="129.533" y="92.107" width="70.3604" height="119.267" filterUnits="userSpaceOnUse" color-interpolation-filters="sRGB">
<feFlood flood-opacity="0" result="BackgroundImageFix"/>
<feColorMatrix in="SourceAlpha" type="matrix" values="0 0 0 0 0 0 0 0 0 0 0 0 0 0 0 0 0 0 127 0" result="hardAlpha"/>
<feOffset dx="4" dy="4"/>
<feGaussianBlur stdDeviation="6"/>
<feComposite in2="hardAlpha" operator="out"/>
<feColorMatrix type="matrix" values="0 0 0 0 0 0 0 0 0 0 0 0 0 0 0 0 0 0 0.5 0"/>
<feBlend mode="normal" in2="BackgroundImageFix" result="effect1_dropShadow_7_24"/>
<feBlend mode="normal" in="SourceGraphic" in2="effect1_dropShadow_7_24" result="shape"/>
</filter>
<filter id="filter2_d_7_24" x="192.548" y="61.0629" width="70.3821" height="209.693" filterUnits="userSpaceOnUse" color-interpolation-filters="sRGB">
<feFlood flood-opacity="0" result="BackgroundImageFix"/>
<feColorMatrix in="SourceAlpha" type="matrix" values="0 0 0 0 0 0 0 0 0 0 0 0 0 0 0 0 0 0 127 0" result="hardAlpha"/>
<feOffset dx="4" dy="4"/>
<feGaussianBlur stdDeviation="6"/>
<feComposite in2="hardAlpha" operator="out"/>
<feColorMatrix type="matrix" values="0 0 0 0 0 0 0 0 0 0 0 0 0 0 0 0 0 0 0.5 0"/>
<feBlend mode="normal" in2="BackgroundImageFix" result="effect1_dropShadow_7_24"/>
<feBlend mode="normal" in="SourceGraphic" in2="effect1_dropShadow_7_24" result="shape"/>
</filter>
<filter id="filter3_d_7_24" x="255.586" y="23" width="70.3599" height="228.483" filterUnits="userSpaceOnUse" color-interpolation-filters="sRGB">
<feFlood flood-opacity="0" result="BackgroundImageFix"/>
<feColorMatrix in="SourceAlpha" type="matrix" values="0 0 0 0 0 0 0 0 0 0 0 0 0 0 0 0 0 0 127 0" result="hardAlpha"/>
<feOffset dx="4" dy="4"/>
<feGaussianBlur stdDeviation="6"/>
<feComposite in2="hardAlpha" operator="out"/>
<feColorMatrix type="matrix" values="0 0 0 0 0 0 0 0 0 0 0 0 0 0 0 0 0 0 0.5 0"/>
<feBlend mode="normal" in2="BackgroundImageFix" result="effect1_dropShadow_7_24"/>
<feBlend mode="normal" in="SourceGraphic" in2="effect1_dropShadow_7_24" result="shape"/>
</filter>
<filter id="filter4_d_7_24" x="33" y="130.411" width="369.692" height="194.71" filterUnits="userSpaceOnUse" color-interpolation-filters="sRGB">
<feFlood flood-opacity="0" result="BackgroundImageFix"/>
<feColorMatrix in="SourceAlpha" type="matrix" values="0 0 0 0 0 0 0 0 0 0 0 0 0 0 0 0 0 0 127 0" result="hardAlpha"/>
<feOffset dx="4" dy="4"/>
<feGaussianBlur stdDeviation="6"/>
<feComposite in2="hardAlpha" operator="out"/>
<feColorMatrix type="matrix" values="0 0 0 0 0 0 0 0 0 0 0 0 0 0 0 0 0 0 0.5 0"/>
<feBlend mode="normal" in2="BackgroundImageFix" result="effect1_dropShadow_7_24"/>
<feBlend mode="normal" in="SourceGraphic" in2="effect1_dropShadow_7_24" result="shape"/>
</filter>
<filter id="filter5_d_7_24" x="43.0071" y="217.891" width="349.247" height="199.11" filterUnits="userSpaceOnUse" color-interpolation-filters="sRGB">
<feFlood flood-opacity="0" result="BackgroundImageFix"/>
<feColorMatrix in="SourceAlpha" type="matrix" values="0 0 0 0 0 0 0 0 0 0 0 0 0 0 0 0 0 0 127 0" result="hardAlpha"/>
<feOffset dx="4" dy="4"/>
<feGaussianBlur stdDeviation="6"/>
<feComposite in2="hardAlpha" operator="out"/>
<feColorMatrix type="matrix" values="0 0 0 0 0 0 0 0 0 0 0 0 0 0 0 0 0 0 0.5 0"/>
<feBlend mode="normal" in2="BackgroundImageFix" result="effect1_dropShadow_7_24"/>
<feBlend mode="normal" in="SourceGraphic" in2="effect1_dropShadow_7_24" result="shape"/>
</filter>
<filter id="filter6_d_7_24" x="465.848" y="119.64" width="1090.21" height="246.24" filterUnits="userSpaceOnUse" color-interpolation-filters="sRGB">
<feFlood flood-opacity="0" result="BackgroundImageFix"/>
<feColorMatrix in="SourceAlpha" type="matrix" values="0 0 0 0 0 0 0 0 0 0 0 0 0 0 0 0 0 0 127 0" result="hardAlpha"/>
<feOffset dx="4" dy="4"/>
<feGaussianBlur stdDeviation="6"/>
<feComposite in2="hardAlpha" operator="out"/>
<feColorMatrix type="matrix" values="0 0 0 0 0 0 0 0 0 0 0 0 0 0 0 0 0 0 0.6 0"/>
<feBlend mode="normal" in2="BackgroundImageFix" result="effect1_dropShadow_7_24"/>
<feBlend mode="normal" in="SourceGraphic" in2="effect1_dropShadow_7_24" result="shape"/>
</filter>
<linearGradient id="paint0_linear_7_24" x1="97.685" y1="138.411" x2="97.685" y2="264.942" gradientUnits="userSpaceOnUse">
<stop stop-color="#FFA600"/>
<stop offset="1" stop-color="#7D5100"/>
</linearGradient>
<linearGradient id="paint1_linear_7_24" x1="160.713" y1="100.107" x2="160.713" y2="195.374" gradientUnits="userSpaceOnUse">
<stop stop-color="#FFA600"/>
<stop offset="1" stop-color="#7D5100"/>
</linearGradient>
<linearGradient id="paint2_linear_7_24" x1="223.739" y1="69.0629" x2="223.739" y2="254.756" gradientUnits="userSpaceOnUse">
<stop stop-color="#FFA600"/>
<stop offset="1" stop-color="#7D5100"/>
</linearGradient>
<linearGradient id="paint3_linear_7_24" x1="286.766" y1="31" x2="286.766" y2="235.483" gradientUnits="userSpaceOnUse">
<stop stop-color="#FFA600"/>
<stop offset="1" stop-color="#7D5100"/>
</linearGradient>
<linearGradient id="paint4_linear_7_24" x1="213.846" y1="309.12" x2="213.846" y2="138.411" gradientUnits="userSpaceOnUse">
<stop stop-color="#018006"/>
<stop offset="1" stop-color="#00FF09"/>
</linearGradient>
<linearGradient id="paint5_linear_7_24" x1="213.63" y1="225.891" x2="213.63" y2="401.001" gradientUnits="userSpaceOnUse">
<stop stop-color="#00BF08"/>
<stop offset="1" stop-color="#001A01"/>
</linearGradient>
<linearGradient id="paint6_linear_7_24" x1="1001" y1="387" x2="1001" y2="46" gradientUnits="userSpaceOnUse">
<stop stop-color="#003203"/>
<stop offset="1" stop-color="#00EB0C"/>
</linearGradient>
</defs>
</svg>
